<svg width="32" height="30" viewBox="0 0 32 30" fill="none" xmlns="http://www.w3.org/2000/svg">
<g clip-path="url(#clip0_1_5)" filter="url(#filter0_d_1_5)">
<path fill-rule="evenodd" clip-rule="evenodd" d="M22.9971 7C22.9971 12.0639 15.9971 18 15.9971 18C15.9971 18 8.99701 12.0639 8.99701 7C8.99701 3.11 12.131 0 15.9971 0C19.863 0 22.9971 3.11 22.9971 7ZM15.9971 9.5C17.3778 9.5 18.4971 8.38071 18.4971 7C18.4971 5.61929 17.3778 4.5 15.9971 4.5C14.6163 4.5 13.497 5.61929 13.497 7C13.497 8.38071 14.6163 9.5 15.9971 9.5Z" fill="white"/>
<path d="M8.96384 13.4024L4 22H27.997L23.0321 13.4005L22.3 14.1325L26.265 21H5.73205L9.69589 14.1344L8.96384 13.4024Z" fill="white"/>
</g>
<defs>
<filter id="filter0_d_1_5" x="0" y="0" width="32" height="30" filterUnits="userSpaceOnUse" color-interpolation-filters="sRGB">
<feFlood flood-opacity="0" result="BackgroundImageFix"/>
<feColorMatrix in="SourceAlpha" type="matrix" values="0 0 0 0 0 0 0 0 0 0 0 0 0 0 0 0 0 0 127 0" result="hardAlpha"/>
<feOffset dy="4"/>
<feGaussianBlur stdDeviation="2"/>
<feComposite in2="hardAlpha" operator="out"/>
<feColorMatrix type="matrix" values="0 0 0 0 0 0 0 0 0 0 0 0 0 0 0 0 0 0 0.25 0"/>
<feBlend mode="normal" in2="BackgroundImageFix" result="effect1_dropShadow_1_5"/>
<feBlend mode="normal" in="SourceGraphic" in2="effect1_dropShadow_1_5" result="shape"/>
</filter>
<clipPath id="clip0_1_5">
<rect width="24" height="22" fill="white" transform="translate(4)"/>
</clipPath>
</defs>
</svg>
