<svg width="1008" height="635" viewBox="0 0 1008 635" fill="none" xmlns="http://www.w3.org/2000/svg">
<g filter="url(#filter0_f_522_4)">
<ellipse cx="504.5" cy="586" rx="452.5" ry="5" fill="black"/>
</g>
<path d="M99 28C99 13.0883 111.088 1 126 1H886C900.912 1 913 13.0883 913 28V550C913 551.657 911.657 553 910 553H102C100.343 553 99 551.657 99 550V28Z" fill="#1A202C" stroke="#4A5568" stroke-width="2"/>
<path d="M103 27C103 14.8497 112.85 5 125 5H887C899.15 5 909 14.8497 909 27V533H103V27Z" fill="black"/>
<rect x="119" y="31" width="770" height="480" fill="white"/>
<path d="M370.293 262.545H366.603V280H370.293V262.545ZM376.892 272.432C376.901 270.744 377.906 269.756 379.372 269.756C380.83 269.756 381.707 270.71 381.699 272.312V280H385.33V271.665C385.33 268.614 383.54 266.739 380.812 266.739C378.869 266.739 377.463 267.693 376.875 269.219H376.722V266.909H373.261V280H376.892V272.432ZM399.083 270.642C398.759 268.23 396.816 266.739 393.509 266.739C390.16 266.739 387.952 268.29 387.961 270.812C387.952 272.773 389.188 274.043 391.745 274.554L394.012 275.006C395.154 275.236 395.674 275.653 395.691 276.31C395.674 277.085 394.83 277.639 393.56 277.639C392.265 277.639 391.404 277.085 391.183 276.02L387.612 276.207C387.952 278.713 390.083 280.256 393.552 280.256C396.944 280.256 399.373 278.526 399.381 275.943C399.373 274.051 398.137 272.918 395.597 272.398L393.228 271.92C392.009 271.656 391.558 271.239 391.566 270.608C391.558 269.824 392.444 269.312 393.569 269.312C394.83 269.312 395.58 270.003 395.759 270.847L399.083 270.642ZM407.634 280.256C410.872 280.256 413.054 278.679 413.565 276.25L410.207 276.028C409.841 277.026 408.903 277.545 407.693 277.545C405.878 277.545 404.727 276.344 404.727 274.392V274.384H413.642V273.386C413.642 268.938 410.949 266.739 407.489 266.739C403.636 266.739 401.139 269.474 401.139 273.514C401.139 277.665 403.602 280.256 407.634 280.256ZM404.727 272.134C404.804 270.642 405.938 269.449 407.548 269.449C409.125 269.449 410.216 270.574 410.224 272.134H404.727ZM416.011 280H419.642V272.594C419.642 270.983 420.818 269.875 422.42 269.875C422.923 269.875 423.614 269.96 423.955 270.071V266.849C423.631 266.773 423.179 266.722 422.812 266.722C421.347 266.722 420.145 267.574 419.668 269.193H419.531V266.909H416.011V280ZM433.451 266.909H430.988V263.773H427.357V266.909H425.567V269.636H427.357V276.455C427.34 279.02 429.087 280.29 431.721 280.179C432.658 280.145 433.323 279.957 433.69 279.838L433.119 277.136C432.94 277.17 432.556 277.256 432.215 277.256C431.491 277.256 430.988 276.983 430.988 275.977V269.636H433.451V266.909ZM440.416 262.545L446.783 273.83V280H450.447V273.83L456.814 262.545H452.68L448.7 270.062H448.53L444.55 262.545H440.416ZM461.957 280.256C465.929 280.256 468.401 277.537 468.401 273.506C468.401 269.449 465.929 266.739 461.957 266.739C457.986 266.739 455.514 269.449 455.514 273.506C455.514 277.537 457.986 280.256 461.957 280.256ZM461.974 277.443C460.142 277.443 459.205 275.764 459.205 273.48C459.205 271.196 460.142 269.509 461.974 269.509C463.773 269.509 464.71 271.196 464.71 273.48C464.71 275.764 463.773 277.443 461.974 277.443ZM479.156 274.426C479.165 276.182 477.963 277.102 476.659 277.102C475.287 277.102 474.401 276.139 474.392 274.597V266.909H470.761V275.244C470.77 278.304 472.56 280.17 475.193 280.17C477.162 280.17 478.577 279.156 479.165 277.622H479.301V280H482.787V266.909H479.156V274.426ZM485.691 280H489.322V272.594C489.322 270.983 490.498 269.875 492.1 269.875C492.603 269.875 493.293 269.96 493.634 270.071V266.849C493.31 266.773 492.859 266.722 492.492 266.722C491.026 266.722 489.825 267.574 489.347 269.193H489.211V266.909H485.691V280ZM507.322 280C512.64 280 515.862 276.71 515.862 271.256C515.862 265.818 512.64 262.545 507.373 262.545H501.134V280H507.322ZM504.825 276.838V265.707H507.177C510.45 265.707 512.18 267.378 512.18 271.256C512.18 275.151 510.45 276.838 507.168 276.838H504.825ZM524.493 280.256C527.732 280.256 529.913 278.679 530.425 276.25L527.067 276.028C526.7 277.026 525.763 277.545 524.553 277.545C522.737 277.545 521.587 276.344 521.587 274.392V274.384H530.501V273.386C530.501 268.938 527.808 266.739 524.348 266.739C520.496 266.739 517.999 269.474 517.999 273.514C517.999 277.665 520.462 280.256 524.493 280.256ZM521.587 272.134C521.663 270.642 522.797 269.449 524.408 269.449C525.984 269.449 527.075 270.574 527.084 272.134H521.587ZM543.763 270.642C543.439 268.23 541.496 266.739 538.189 266.739C534.839 266.739 532.632 268.29 532.641 270.812C532.632 272.773 533.868 274.043 536.425 274.554L538.692 275.006C539.834 275.236 540.354 275.653 540.371 276.31C540.354 277.085 539.51 277.639 538.24 277.639C536.945 277.639 536.084 277.085 535.862 276.02L532.291 276.207C532.632 278.713 534.763 280.256 538.232 280.256C541.624 280.256 544.053 278.526 544.061 275.943C544.053 274.051 542.817 272.918 540.277 272.398L537.908 271.92C536.689 271.656 536.237 271.239 536.246 270.608C536.237 269.824 537.124 269.312 538.249 269.312C539.51 269.312 540.26 270.003 540.439 270.847L543.763 270.642ZM546.347 280H549.978V266.909H546.347V280ZM548.171 265.222C549.254 265.222 550.14 264.395 550.14 263.381C550.14 262.375 549.254 261.548 548.171 261.548C547.097 261.548 546.211 262.375 546.211 263.381C546.211 264.395 547.097 265.222 548.171 265.222ZM558.784 285.182C562.526 285.182 565.185 283.477 565.185 280.128V266.909H561.58V269.108H561.443C560.957 268.043 559.892 266.739 557.702 266.739C554.83 266.739 552.401 268.972 552.401 273.429C552.401 277.784 554.761 279.812 557.71 279.812C559.798 279.812 560.966 278.764 561.443 277.682H561.597V280.077C561.597 281.875 560.446 282.574 558.869 282.574C557.267 282.574 556.457 281.875 556.159 281.082L552.801 281.534C553.236 283.597 555.256 285.182 558.784 285.182ZM558.861 277.085C557.08 277.085 556.108 275.67 556.108 273.412C556.108 271.188 557.062 269.628 558.861 269.628C560.625 269.628 561.614 271.119 561.614 273.412C561.614 275.722 560.608 277.085 558.861 277.085ZM571.705 272.432C571.713 270.744 572.719 269.756 574.185 269.756C575.642 269.756 576.52 270.71 576.511 272.312V280H580.142V271.665C580.142 268.614 578.352 266.739 575.625 266.739C573.682 266.739 572.276 267.693 571.688 269.219H571.534V266.909H568.074V280H571.705V272.432ZM588.626 280H592.317V272.79H599.808V280H603.49V262.545H599.808V269.747H592.317V262.545H588.626V280ZM612.43 280.256C615.669 280.256 617.851 278.679 618.362 276.25L615.004 276.028C614.638 277.026 613.7 277.545 612.49 277.545C610.675 277.545 609.524 276.344 609.524 274.392V274.384H618.439V273.386C618.439 268.938 615.746 266.739 612.286 266.739C608.433 266.739 605.936 269.474 605.936 273.514C605.936 277.665 608.399 280.256 612.43 280.256ZM609.524 272.134C609.601 270.642 610.734 269.449 612.345 269.449C613.922 269.449 615.013 270.574 615.021 272.134H609.524ZM620.808 280H624.439V272.594C624.439 270.983 625.615 269.875 627.217 269.875C627.72 269.875 628.411 269.96 628.751 270.071V266.849C628.428 266.773 627.976 266.722 627.609 266.722C626.143 266.722 624.942 267.574 624.464 269.193H624.328V266.909H620.808V280ZM635.985 280.256C639.224 280.256 641.406 278.679 641.917 276.25L638.559 276.028C638.192 277.026 637.255 277.545 636.045 277.545C634.229 277.545 633.079 276.344 633.079 274.392V274.384H641.994V273.386C641.994 268.938 639.3 266.739 635.84 266.739C631.988 266.739 629.491 269.474 629.491 273.514C629.491 277.665 631.954 280.256 635.985 280.256ZM633.079 272.134C633.156 270.642 634.289 269.449 635.9 269.449C637.477 269.449 638.567 270.574 638.576 272.134H633.079Z" fill="#2D3748"/>
<path d="M464.173 535.545V545H465.816V538.491H465.904L468.517 544.972H469.745L472.358 538.505H472.445V545H474.089V535.545H471.993L469.186 542.396H469.075L466.269 535.545H464.173ZM477.921 545.143C479.033 545.143 479.698 544.621 480.003 544.026H480.058V545H481.665V540.254C481.665 538.38 480.137 537.817 478.784 537.817C477.293 537.817 476.148 538.482 475.779 539.774L477.339 539.996C477.505 539.511 477.976 539.096 478.793 539.096C479.569 539.096 479.993 539.493 479.993 540.19V540.217C479.993 540.697 479.49 540.721 478.239 540.854C476.863 541.002 475.548 541.413 475.548 543.01C475.548 544.404 476.568 545.143 477.921 545.143ZM478.355 543.915C477.657 543.915 477.159 543.597 477.159 542.983C477.159 542.341 477.718 542.073 478.465 541.967C478.904 541.907 479.781 541.796 479.998 541.621V542.456C479.998 543.246 479.361 543.915 478.355 543.915ZM486.438 545.138C488.22 545.138 489.356 544.081 489.476 542.576H487.878C487.735 543.338 487.186 543.777 486.452 543.777C485.409 543.777 484.735 542.904 484.735 541.455C484.735 540.023 485.422 539.165 486.452 539.165C487.255 539.165 487.749 539.682 487.878 540.365H489.476C489.36 538.828 488.16 537.817 486.429 537.817C484.351 537.817 483.04 539.317 483.04 541.482C483.04 543.629 484.319 545.138 486.438 545.138ZM490.922 545H492.565V543.883H492.662C492.925 544.4 493.475 545.125 494.693 545.125C496.365 545.125 497.616 543.8 497.616 541.464C497.616 539.1 496.328 537.817 494.689 537.817C493.438 537.817 492.916 538.569 492.662 539.082H492.593V535.545H490.922V545ZM492.561 541.455C492.561 540.079 493.152 539.188 494.227 539.188C495.34 539.188 495.912 540.134 495.912 541.455C495.912 542.784 495.331 543.754 494.227 543.754C493.161 543.754 492.561 542.83 492.561 541.455ZM502.129 545.138C504.207 545.138 505.527 543.675 505.527 541.482C505.527 539.285 504.207 537.817 502.129 537.817C500.052 537.817 498.732 539.285 498.732 541.482C498.732 543.675 500.052 545.138 502.129 545.138ZM502.139 543.8C500.989 543.8 500.426 542.775 500.426 541.478C500.426 540.18 500.989 539.142 502.139 539.142C503.27 539.142 503.833 540.18 503.833 541.478C503.833 542.775 503.27 543.8 502.139 543.8ZM510.039 545.138C512.116 545.138 513.436 543.675 513.436 541.482C513.436 539.285 512.116 537.817 510.039 537.817C507.961 537.817 506.641 539.285 506.641 541.482C506.641 543.675 507.961 545.138 510.039 545.138ZM510.048 543.8C508.898 543.8 508.335 542.775 508.335 541.478C508.335 540.18 508.898 539.142 510.048 539.142C511.179 539.142 511.742 540.18 511.742 541.478C511.742 542.775 511.179 543.8 510.048 543.8ZM514.855 545H516.526V542.618L517.135 541.967L519.305 545H521.304L518.396 540.97L521.142 537.909H519.19L516.641 540.757H516.526V535.545H514.855V545ZM525.555 545H527.267V541.805H529.077C531.261 541.805 532.433 540.494 532.433 538.675C532.433 536.87 531.274 535.545 529.1 535.545H525.555V545ZM527.267 540.397V536.977H528.837C530.12 536.977 530.688 537.669 530.688 538.675C530.688 539.682 530.12 540.397 528.846 540.397H527.267ZM533.847 545H535.518V540.831C535.518 539.931 536.197 539.294 537.115 539.294C537.397 539.294 537.748 539.345 537.891 539.391V537.854C537.739 537.826 537.475 537.808 537.291 537.808C536.478 537.808 535.8 538.269 535.541 539.091H535.467V537.909H533.847V545ZM541.802 545.138C543.88 545.138 545.2 543.675 545.2 541.482C545.2 539.285 543.88 537.817 541.802 537.817C539.725 537.817 538.405 539.285 538.405 541.482C538.405 543.675 539.725 545.138 541.802 545.138ZM541.812 543.8C540.662 543.8 540.099 542.775 540.099 541.478C540.099 540.18 540.662 539.142 541.812 539.142C542.943 539.142 543.506 540.18 543.506 541.478C543.506 542.775 542.943 543.8 541.812 543.8Z" fill="#A0AEC0"/>
<path d="M0 552C0 550.895 0.895431 550 2 550H1006C1007.1 550 1008 550.895 1008 552V568H0V552Z" fill="#A3ACB1"/>
<path d="M0 552C0 550.895 0.895431 550 2 550H1006C1007.1 550 1008 550.895 1008 552V568H0V552Z" fill="url(#paint0_linear_522_4)"/>
<path d="M0 568H1008L987.646 572.105C961.613 577.355 935.123 580 908.566 580H97.9089C68.724 580 39.6267 576.806 11.1367 570.475L0 568Z" fill="#647279"/>
<path d="M0 568H1008L987.646 572.105C961.613 577.355 935.123 580 908.566 580H97.9089C68.724 580 39.6267 576.806 11.1367 570.475L0 568Z" fill="url(#paint1_linear_522_4)"/>
<path fill-rule="evenodd" clip-rule="evenodd" d="M421.033 550C421.547 557.818 428.052 564 436 564H573C580.948 564 587.453 557.818 587.967 550H421.033Z" fill="#96A1A8"/>
<path fill-rule="evenodd" clip-rule="evenodd" d="M421.033 550C421.547 557.818 428.052 564 436 564H573C580.948 564 587.453 557.818 587.967 550H421.033Z" fill="url(#paint2_linear_522_4)"/>
<defs>
<filter id="filter0_f_522_4" x="8" y="537" width="993" height="98" filterUnits="userSpaceOnUse" color-interpolation-filters="sRGB">
<feFlood flood-opacity="0" result="BackgroundImageFix"/>
<feBlend mode="normal" in="SourceGraphic" in2="BackgroundImageFix" result="shape"/>
<feGaussianBlur stdDeviation="22" result="effect1_foregroundBlur_522_4"/>
</filter>
<linearGradient id="paint0_linear_522_4" x1="-1.94452e-10" y1="559" x2="1008" y2="559" gradientUnits="userSpaceOnUse">
<stop stop-color="#0D1012"/>
<stop offset="0.0295345" stop-color="#CAD4DB"/>
<stop offset="0.0625" stop-color="#242729"/>
<stop offset="0.133609" stop-color="#A3ACB1"/>
<stop offset="0.865967" stop-color="#A3ACB1"/>
<stop offset="0.941937" stop-color="#242729"/>
<stop offset="0.971275" stop-color="#CAD4DB"/>
<stop offset="0.996436" stop-color="#0D1012"/>
</linearGradient>
<linearGradient id="paint1_linear_522_4" x1="504" y1="568" x2="504" y2="580" gradientUnits="userSpaceOnUse">
<stop stop-color="#7A7F83"/>
<stop offset="1" stop-color="#0B0B0E"/>
</linearGradient>
<linearGradient id="paint2_linear_522_4" x1="437.5" y1="558.5" x2="574.5" y2="558.5" gradientUnits="userSpaceOnUse">
<stop stop-color="#3C3C3C"/>
<stop offset="0.317518" stop-color="#3C3C3C" stop-opacity="0"/>
<stop offset="0.660584" stop-color="#3C3C3C" stop-opacity="0"/>
<stop offset="1" stop-color="#444444"/>
</linearGradient>
</defs>
</svg>
