<svg width="24" height="22" viewBox="0 0 24 22" fill="none" xmlns="http://www.w3.org/2000/svg">
<path fill-rule="evenodd" clip-rule="evenodd" d="M19 7C19 12.0639 12 18 12 18C12 18 4.99994 12.0639 4.99994 7C4.99994 3.11 8.13395 0 12 0C15.8659 0 19 3.11 19 7ZM12 9.5C13.3807 9.5 14.5 8.38071 14.5 7C14.5 5.61929 13.3807 4.5 12 4.5C10.6192 4.5 9.49994 5.61929 9.49994 7C9.49994 8.38071 10.6192 9.5 12 9.5Z" fill="#FFA800"/>
<path d="M4.96677 13.4024L0.00292969 22H23.9999L19.035 13.4005L18.3029 14.1325L22.2679 21H1.73498L5.69882 14.1344L4.96677 13.4024Z" fill="#FFA800"/>
</svg>
