<svg width="24" height="22" viewBox="0 0 24 22" fill="none" xmlns="http://www.w3.org/2000/svg">
<path fill-rule="evenodd" clip-rule="evenodd" d="M18.9971 7C18.9971 12.0639 11.9971 18 11.9971 18C11.9971 18 4.99701 12.0639 4.99701 7C4.99701 3.11 8.13102 0 11.9971 0C15.863 0 18.9971 3.11 18.9971 7ZM11.9971 9.5C13.3778 9.5 14.4971 8.38071 14.4971 7C14.4971 5.61929 13.3778 4.5 11.9971 4.5C10.6163 4.5 9.49701 5.61929 9.49701 7C9.49701 8.38071 10.6163 9.5 11.9971 9.5Z" fill="#2B2738"/>
<path d="M4.96384 13.4024L0 22H23.997L19.0321 13.4005L18.3 14.1325L22.265 21H1.73205L5.69589 14.1344L4.96384 13.4024Z" fill="#2B2738"/>
</svg>
