<svg width="512" height="512" viewBox="0 0 512 512" fill="none" xmlns="http://www.w3.org/2000/svg">
<path d="M256 512C397.385 512 512 397.385 512 256C512 114.615 397.385 0 256 0C114.615 0 0 114.615 0 256C0 397.385 114.615 512 256 512Z" fill="url(#paint0_linear_1_905)"/>
<path fill-rule="evenodd" clip-rule="evenodd" d="M115.881 253.298C190.51 220.783 240.274 199.347 265.174 188.991C336.268 159.42 351.041 154.283 360.669 154.114C362.787 154.077 367.522 154.601 370.589 157.09C373.179 159.192 373.892 162.03 374.233 164.023C374.574 166.015 374.998 170.554 374.661 174.101C370.808 214.58 354.138 312.814 345.657 358.152C342.069 377.336 335.003 383.768 328.162 384.398C313.296 385.766 302.007 374.573 287.608 365.134C265.077 350.365 252.348 341.171 230.477 326.758C205.202 310.102 221.587 300.948 235.991 285.987C239.761 282.072 305.263 222.493 306.53 217.088C306.689 216.412 306.836 213.893 305.339 212.562C303.842 211.232 301.633 211.687 300.039 212.048C297.779 212.561 261.785 236.352 192.057 283.421C181.84 290.436 172.586 293.855 164.294 293.676C155.154 293.478 137.571 288.507 124.5 284.258C108.468 279.047 95.7264 276.292 96.8359 267.441C97.4138 262.831 103.762 258.117 115.881 253.298Z" fill="white"/>
<defs>
<linearGradient id="paint0_linear_1_905" x1="256" y1="0" x2="256" y2="508.203" gradientUnits="userSpaceOnUse">
<stop stop-color="#2AABEE"/>
<stop offset="1" stop-color="#229ED9"/>
</linearGradient>
</defs>
</svg>
