<svg width="512" height="512" viewBox="0 0 512 512" fill="none" xmlns="http://www.w3.org/2000/svg">
<path fill-rule="evenodd" clip-rule="evenodd" d="M265.096 0.367515C379.58 0.90536 430.982 38.2471 443.737 49.9261C485.919 86.5763 509.354 167.868 493.603 296.259C479.746 409.699 400.62 429.825 374.076 436.576C371.476 437.237 369.381 437.77 367.901 438.25C360.755 440.555 297.52 456.383 215.383 449.468C206.317 459.994 194.254 473.824 185.572 483.198C182.948 486.024 180.493 488.814 178.146 491.481C166.262 504.982 157.171 515.311 143.312 511.013C129.559 506.787 130.327 485.888 130.327 485.888L130.404 434.331H130.327C10.1573 400.524 11.9245 275.974 13.3075 209.435C14.6137 142.896 27.522 89.2655 64.1723 52.6153C130.02 -7.77699 265.096 0.367515 265.096 0.367515Z" fill="#665CAC"/>
<path d="M360.444 400.664C383.005 395.428 446.01 380.807 457.644 287.039C470.937 179.777 452.727 106.554 417.075 75.8964C406.318 66.1384 359.91 37.0179 263.021 36.5569C263.021 36.5569 148.307 29.0271 92.6013 79.4308C61.6368 110.011 51.1873 155.497 50.0348 211.049L49.9092 216.708C48.6089 273.517 46.3172 373.64 144.542 400.908C144.542 400.908 144.158 479.664 144.081 486.579C144.081 491.42 144.849 494.724 147.615 495.415C149.613 495.953 152.609 494.877 155.145 492.342C171.357 475.976 223.374 413.279 223.374 413.279C293.141 417.889 348.615 404.058 354.608 402.138C355.988 401.698 357.974 401.237 360.444 400.664Z" fill="white"/>
<path d="M318.662 206.28C318.835 209.852 316.079 212.888 312.507 213.061C308.934 213.233 305.898 210.477 305.726 206.905C304.656 184.774 294.375 174.157 273.126 173.028C269.554 172.838 266.813 169.789 267.003 166.218C267.192 162.647 270.241 159.905 273.813 160.095C301.776 161.581 317.275 177.587 318.662 206.28Z" fill="#665CAC"/>
<path d="M345.24 224.208C348.815 224.289 351.78 221.456 351.861 217.881C352.436 192.569 344.856 171.198 329.105 154.038C313.326 136.847 291.563 127.329 264.016 125.373C260.449 125.119 257.351 127.806 257.098 131.374C256.845 134.941 259.531 138.038 263.099 138.292C287.499 140.024 306.149 148.181 319.563 162.796C332.99 177.424 339.414 195.535 338.913 217.587C338.831 221.162 341.664 224.126 345.24 224.208Z" fill="#665CAC"/>
<path d="M385.9 230.978C385.927 234.554 383.049 237.475 379.473 237.502C375.897 237.528 372.976 234.651 372.949 231.075C372.654 191.667 361.024 161.035 338.101 138.621C315.098 116.202 286.504 104.874 252.145 104.654C248.568 104.631 245.687 101.713 245.71 98.137C245.733 94.5607 248.651 91.68 252.227 91.7029C289.88 91.9437 321.697 104.549 347.148 129.353C372.689 154.326 385.581 188.282 385.9 230.978Z" fill="#665CAC"/>
<path d="M288.759 288.038C283.919 294.108 274.775 293.339 274.775 293.339C208.236 276.359 190.411 208.974 190.411 208.974C190.411 208.974 189.642 199.908 195.712 194.99L207.699 185.463C213.692 180.853 217.457 169.712 211.387 158.801C208.006 152.731 201.244 141.898 196.25 135.059C190.948 127.837 178.655 113.084 178.578 113.008C172.662 105.939 163.903 104.325 154.682 109.089C154.682 109.089 154.606 109.166 154.529 109.166C145.77 114.083 137.625 120.691 130.018 129.066L129.865 129.22C124.179 136.058 120.875 142.82 120.107 149.427C119.953 150.196 119.876 151.195 119.953 152.347C119.876 155.267 120.337 158.11 121.259 160.953L121.567 161.183C124.409 171.402 131.632 188.383 147.229 216.735C157.372 235.098 167.744 250.465 178.04 263.374C183.419 270.212 189.565 277.204 196.634 284.35L199.4 287.116C206.546 294.184 213.538 300.331 220.376 305.71C233.285 316.006 248.575 326.378 267.015 336.52C295.367 352.118 312.348 359.34 322.567 362.183L322.797 362.491C325.64 363.413 328.483 363.797 331.403 363.797C332.555 363.874 333.554 363.797 334.322 363.643C340.93 362.875 347.692 359.571 354.53 353.885L354.684 353.731C363.059 346.125 369.667 337.903 374.584 329.221C374.584 329.221 374.661 329.144 374.661 329.067C379.425 319.847 377.811 311.088 370.742 305.172C370.742 305.172 355.913 292.801 348.691 287.5C341.929 282.505 331.019 275.821 324.949 272.363C314.038 266.293 302.897 270.058 298.287 276.051L288.759 288.038Z" fill="#665CAC"/>
</svg>
